<svg width="1200" height="800" viewBox="0 0 1200 800" fill="none" xmlns="http://www.w3.org/2000/svg">
  <defs>
    <linearGradient id="bg" x1="0" y1="0" x2="1200" y2="800" gradientUnits="userSpaceOnUse">
      <stop stop-color="#0C1020"/>
      <stop offset="1" stop-color="#1A2A46"/>
    </linearGradient>
    <linearGradient id="panel" x1="150" y1="120" x2="1040" y2="700" gradientUnits="userSpaceOnUse">
      <stop stop-color="#14213D" stop-opacity="0.95"/>
      <stop offset="1" stop-color="#243B67" stop-opacity="0.88"/>
    </linearGradient>
    <linearGradient id="accent" x1="240" y1="160" x2="980" y2="680" gradientUnits="userSpaceOnUse">
      <stop stop-color="#7EF9FF"/>
      <stop offset="0.5" stop-color="#8B5CF6"/>
      <stop offset="1" stop-color="#FFB86C"/>
    </linearGradient>
    <radialGradient id="glow" cx="0" cy="0" r="1" gradientUnits="userSpaceOnUse" gradientTransform="translate(620 390) rotate(90) scale(320 420)">
      <stop stop-color="#7EF9FF" stop-opacity="0.45"/>
      <stop offset="1" stop-color="#7EF9FF" stop-opacity="0"/>
    </radialGradient>
  </defs>
  <rect width="1200" height="800" fill="url(#bg)"/>
  <circle cx="955" cy="145" r="145" fill="#7EF9FF" fill-opacity="0.08"/>
  <circle cx="250" cy="650" r="170" fill="#FFB86C" fill-opacity="0.08"/>
  <rect x="92" y="88" width="1016" height="624" rx="42" fill="url(#panel)" stroke="url(#accent)" stroke-opacity="0.45"/>
  <rect x="132" y="130" width="300" height="76" rx="24" fill="#0D1428" fill-opacity="0.9"/>
  <circle cx="168" cy="168" r="14" fill="#7EF9FF"/>
  <rect x="194" y="152" width="180" height="16" rx="8" fill="#FFFFFF" fill-opacity="0.8"/>
  <rect x="132" y="238" width="500" height="364" rx="34" fill="#0B1122" fill-opacity="0.92"/>
  <rect x="662" y="238" width="406" height="364" rx="34" fill="#0B1122" fill-opacity="0.92"/>
  <rect x="168" y="276" width="220" height="20" rx="10" fill="#FFFFFF" fill-opacity="0.82"/>
  <rect x="168" y="314" width="298" height="18" rx="9" fill="#FFFFFF" fill-opacity="0.36"/>
  <rect x="168" y="346" width="250" height="18" rx="9" fill="#FFFFFF" fill-opacity="0.28"/>
  <rect x="168" y="392" width="178" height="146" rx="24" fill="#13213A" stroke="#7EF9FF" stroke-opacity="0.35"/>
  <rect x="364" y="392" width="206" height="146" rx="24" fill="#1B2340" stroke="#8B5CF6" stroke-opacity="0.35"/>
  <path d="M192 505C214 462 235 442 272 420C294 406 318 396 344 386V520H192V505Z" fill="url(#accent)" fill-opacity="0.55"/>
  <path d="M390 519C399 481 419 456 446 432C474 408 514 389 546 382V520H390V519Z" fill="url(#accent)" fill-opacity="0.42"/>
  <rect x="692" y="276" width="166" height="20" rx="10" fill="#FFFFFF" fill-opacity="0.82"/>
  <rect x="692" y="314" width="290" height="18" rx="9" fill="#FFFFFF" fill-opacity="0.36"/>
  <rect x="692" y="346" width="220" height="18" rx="9" fill="#FFFFFF" fill-opacity="0.28"/>
  <rect x="692" y="396" width="332" height="104" rx="26" fill="#111A33" stroke="#7EF9FF" stroke-opacity="0.3"/>
  <rect x="692" y="520" width="332" height="64" rx="20" fill="#111A33" stroke="#FFB86C" stroke-opacity="0.3"/>
  <circle cx="748" cy="448" r="28" fill="#7EF9FF" fill-opacity="0.16"/>
  <circle cx="812" cy="448" r="28" fill="#8B5CF6" fill-opacity="0.16"/>
  <circle cx="876" cy="448" r="28" fill="#FFB86C" fill-opacity="0.16"/>
  <path d="M748 448H748.5C781 448 801 428 818 404" stroke="#7EF9FF" stroke-width="4" stroke-linecap="round"/>
  <path d="M812 448H812.5C848 448 872 426 890 408" stroke="#8B5CF6" stroke-width="4" stroke-linecap="round"/>
  <path d="M876 448H876.5C909 448 930 430 948 412" stroke="#FFB86C" stroke-width="4" stroke-linecap="round"/>
  <circle cx="600" cy="388" r="220" fill="url(#glow)"/>
  <text x="600" y="710" text-anchor="middle" fill="#FFFFFF" fill-opacity="0.9" font-family="Arial, Helvetica, sans-serif" font-size="36" font-weight="700" letter-spacing="3">HOMEEASE AI</text>
</svg>
